<?xml version="1.0" encoding="iso-8859-1"?>
<!-- Generator: Adobe Illustrator 19.0.0, SVG Export Plug-In . SVG Version: 6.00 Build 0)  -->
<svg version="1.1" id="Layer_1" xmlns="http://www.w3.org/2000/svg" xmlns:xlink="http://www.w3.org/1999/xlink" x="0px" y="0px"
	 viewBox="0 0 503.607 503.607" style="enable-background:new 0 0 503.607 503.607;" xml:space="preserve">
<g>
	<g>
		<g>
			<path d="M495.213,235.016h-58.754v-16.787c0-4.633-3.76-8.393-8.393-8.393v-16.787c4.633,0,8.393-3.76,8.393-8.393
				c0-32.399-26.355-58.754-58.754-58.754s-58.754,26.355-58.754,58.754c0,4.633,3.76,8.393,8.393,8.393v16.787
				c-4.633,0-8.393,3.76-8.393,8.393v16.787H218.23v-50.361c0-24.257-11.826-47.213-31.635-61.398
				c-2.929-2.09-6.857-2.09-9.778,0.008c-7.084,5.078-15.167,8.268-23.518,9.77l20.505,20.505c2.728,2.719,3.248,6.95,1.259,10.257
				l-25.18,41.967c-1.511,2.526-4.247,4.071-7.193,4.071s-5.682-1.544-7.193-4.071l-25.18-41.967
				c-1.989-3.307-1.469-7.537,1.259-10.257l20.505-20.505c-8.351-1.502-16.434-4.692-23.518-9.77
				c-2.921-2.098-6.849-2.098-9.778-0.008c-19.809,14.185-31.635,37.141-31.635,61.398v50.361H8.393
				c-4.633,0-8.393,3.76-8.393,8.393v50.361c0,4.633,3.76,8.393,8.393,8.393v117.508h67.148c4.633,0,8.393,3.76,8.393,8.393
				s-3.76,8.393-8.393,8.393H8.393v16.787h67.148c4.633,0,8.393,3.76,8.393,8.393s-3.76,8.393-8.393,8.393H8.393v8.393
				c0,13.883,11.298,25.18,25.18,25.18h436.459c13.883,0,25.18-11.298,25.18-25.18v-8.393h-67.148c-4.633,0-8.393-3.76-8.393-8.393
				s3.76-8.393,8.393-8.393h67.148v-16.787h-67.148c-4.633,0-8.393-3.76-8.393-8.393s3.76-8.393,8.393-8.393h67.148V302.164
				c4.633,0,8.393-3.76,8.393-8.393V243.41C503.607,238.777,499.846,235.016,495.213,235.016z M377.705,142.689
				c20.27,0,37.225,14.445,41.12,33.574h-82.239C340.48,157.134,357.435,142.689,377.705,142.689z M243.41,470.033
				c-41.648,0-75.541-33.893-75.541-75.541c0-41.648,33.893-75.541,75.541-75.541s75.541,33.893,75.541,75.541
				C318.951,436.14,285.058,470.033,243.41,470.033z M486.82,285.377H16.787v-33.574h58.754h134.295h117.508h100.721h58.754V285.377
				z"/>
			<path d="M142.689,117.508c32.399,0,58.754-26.355,58.754-58.754S175.087,0,142.689,0S83.934,26.355,83.934,58.754
				S110.29,117.508,142.689,117.508z M142.689,16.787c23.141,0,41.967,18.826,41.967,41.967c0,23.141-18.826,41.967-41.967,41.967
				c-23.141,0-41.967-18.826-41.967-41.967C100.721,35.613,119.548,16.787,142.689,16.787z"/>
			<polygon points="142.689,185.127 157.301,160.778 142.689,146.165 128.076,160.778 			"/>
			<path d="M243.41,335.738c-32.399,0-58.754,26.355-58.754,58.754c0,32.399,26.355,58.754,58.754,58.754
				s58.754-26.355,58.754-58.754C302.164,362.093,275.809,335.738,243.41,335.738z M243.41,436.459
				c-23.141,0-41.967-18.826-41.967-41.967c0-4.633,3.76-8.393,8.393-8.393s8.393,3.76,8.393,8.393
				c0,13.883,11.298,25.18,25.18,25.18c4.633,0,8.393,3.76,8.393,8.393S248.043,436.459,243.41,436.459z M276.984,402.885
				c-4.633,0-8.393-3.76-8.393-8.393c0-13.883-11.298-25.18-25.18-25.18c-4.633,0-8.393-3.76-8.393-8.393s3.76-8.393,8.393-8.393
				c23.141,0,41.967,18.826,41.967,41.967C285.377,399.125,281.617,402.885,276.984,402.885z"/>
		</g>
	</g>
</g>
<g>
</g>
<g>
</g>
<g>
</g>
<g>
</g>
<g>
</g>
<g>
</g>
<g>
</g>
<g>
</g>
<g>
</g>
<g>
</g>
<g>
</g>
<g>
</g>
<g>
</g>
<g>
</g>
<g>
</g>
</svg>
